# xmcd
#
# Track frame offsets:
#	150
#	15275
#	30480
#	44707
#	58817
#	74955
#	88735
#	102225
#	115920
#	131395
#	145562
#	159940
#	174932
#	188682
#	203185
#	217750
#	229760
#	242892
#	257520
#	272000
#	286237
#	300367
#	314022
#	326900
#	340222
#
# Disc length: 4707 seconds
#
# Revision: 0
# Processed by: cddbd v1.5.1PL0 Copyright (c) Steve Scherf et al.
# Submitted via: EasyCDDAExtractor 4.6.9.1
#
DISCID=65126119
DTITLE=Casey Bill Weldon - Complete Recorded Works 1935-1938 Vol. 2
DYEAR=1900
DGENRE=Blues
TTITLE0=Casey Blues
TTITLE1=I'se Just a Bad Luck Man
TTITLE2=You Just as Well Let Her Go
TTITLE3=Keyhole Blues
TTITLE4=Streamline Woman [Take 1]
TTITLE5=Streamline Woman [Take 2]
TTITLE6=Talkin' to Myself
TTITLE7=Big Katy Adam
TTITLE8=Two-Timin' Woman
TTITLE9=Big Bill Blues (These Blues Are Doggin' Me)
TTITLE10=You Talk in Your Sleep [Take 1]
TTITLE11=You Talk in Your Sleep [Take 2]
TTITLE12=I Believe I'll Make a Change
TTITLE13=The Big Boat
TTITLE14=Can't You Remember?
TTITLE15=Jinx Blues
TTITLE16=Gonna Take My Time
TTITLE17=We Gonna Move (To the Outskirts of Town)
TTITLE18=Back Door Blues
TTITLE19=Front Door Blues [Take 1]
TTITLE20=Front Door Blues [Take 2]
TTITLE21=Oh, Red!
TTITLE22=You Waited Too Long
TTITLE23=Round and Round [Take 1]
TTITLE24=Round and Round [Take 2]
EXTD=
EXTT0=
EXTT1=
EXTT2=
EXTT3=
EXTT4=
EXTT5=
EXTT6=
EXTT7=
EXTT8=
EXTT9=
EXTT10=
EXTT11=
EXTT12=
EXTT13=
EXTT14=
EXTT15=
EXTT16=
EXTT17=
EXTT18=
EXTT19=
EXTT20=
EXTT21=
EXTT22=
EXTT23=
EXTT24=
PLAYORDER=
